<svg width="940" height="939" viewBox="0 0 940 939" fill="none" xmlns="http://www.w3.org/2000/svg">
<rect width="940" height="939" fill="#451287"/>
<path d="M-40.5831 579.353C108.531 571.868 127.668 685.539 176.357 721.191C220.908 753.813 236.416 682.644 326.506 682.644C416.595 682.644 406.419 795.036 473.548 823.359C542.685 852.529 585.674 773.544 649.585 808.389C705.869 839.076 720 939 720 939H3.94393C3.94393 939 -189.697 586.838 -40.5831 579.353Z" fill="url(#paint0_linear_45_2)"/>
<path d="M289 2H940V390C940 390 907.392 386.28 887.5 381.094C774.062 351.519 837.343 202.168 720.5 182.06C656.004 170.96 614.981 224.985 554 205.293C486.619 183.535 522.637 108.314 459 80.6068C409.34 58.985 351.257 101.593 314 68.2156C291.25 47.8338 289 2 289 2Z" fill="url(#paint1_linear_45_2)"/>
<circle cx="183" cy="242" r="129" fill="url(#paint2_linear_45_2)"/>
<circle cx="789" cy="600" r="48" fill="url(#paint3_linear_45_2)"/>
<circle cx="541" cy="627" r="107" fill="url(#paint4_linear_45_2)"/>
<defs>
<linearGradient id="paint0_linear_45_2" x1="593" y1="676.333" x2="26.4614" y2="980.806" gradientUnits="userSpaceOnUse">
<stop offset="0.0175012" stop-color="#58A4EA" stop-opacity="0.36"/>
<stop offset="0.553444" stop-color="#9D73F5"/>
<stop offset="1" stop-color="#CA1FF4" stop-opacity="0.75"/>
</linearGradient>
<linearGradient id="paint1_linear_45_2" x1="406" y1="172.5" x2="989.5" y2="-37.5" gradientUnits="userSpaceOnUse">
<stop stop-color="#D355DE"/>
<stop offset="1" stop-color="#B854F5" stop-opacity="0.34"/>
</linearGradient>
<linearGradient id="paint2_linear_45_2" x1="28.5395" y1="217.671" x2="344.816" y2="310.461" gradientUnits="userSpaceOnUse">
<stop stop-color="#31A8FF"/>
<stop offset="0.749076" stop-color="#F863E9" stop-opacity="0.391232"/>
<stop offset="1" stop-color="#940F86" stop-opacity="0.49"/>
</linearGradient>
<linearGradient id="paint3_linear_45_2" x1="837" y1="583" x2="741" y2="660" gradientUnits="userSpaceOnUse">
<stop stop-color="#CE0BFF"/>
<stop offset="0.868721" stop-color="#92C4FF" stop-opacity="0.281351"/>
<stop offset="1" stop-color="#CE0BFF" stop-opacity="0"/>
</linearGradient>
<linearGradient id="paint4_linear_45_2" x1="677.688" y1="499.59" x2="434" y2="706.786" gradientUnits="userSpaceOnUse">
<stop stop-color="#B721FE"/>
<stop offset="0.568867" stop-color="#A323EE" stop-opacity="0.775906"/>
<stop offset="1" stop-color="#7F35DE" stop-opacity="0.17"/>
</linearGradient>
</defs>
</svg>
