<svg width="60" height="62" viewBox="0 0 60 62" fill="none" xmlns="http://www.w3.org/2000/svg">
<path d="M36.1391 42.3942C31.4974 42.3882 27.0474 40.5416 23.7652 37.2593C20.483 33.9771 18.6364 29.5272 18.6304 24.8854C18.6304 23.4984 19.1814 22.1681 20.1622 21.1873C21.143 20.2065 22.4732 19.6555 23.8603 19.6555C24.154 19.6533 24.4472 19.6799 24.7357 19.7351C25.0146 19.7764 25.2888 19.8449 25.5543 19.9398C25.741 20.0053 25.9074 20.1184 26.037 20.268C26.1667 20.4175 26.255 20.5983 26.2933 20.7925L27.8509 27.6141C27.8929 27.7992 27.8878 27.992 27.8362 28.1747C27.7846 28.3574 27.688 28.5242 27.5553 28.66C27.4075 28.8192 27.3961 28.8306 25.9977 29.5582C27.1176 32.015 29.0824 33.9879 31.5346 35.1178C32.2736 33.708 32.2849 33.6966 32.4441 33.5488C32.5799 33.4162 32.7468 33.3196 32.9295 33.268C33.1122 33.2163 33.3049 33.2113 33.4901 33.2532L40.3117 34.8108C40.4996 34.8544 40.6734 34.9452 40.8166 35.0744C40.9598 35.2037 41.0677 35.3673 41.1303 35.5498C41.2262 35.8197 41.2985 36.0974 41.3463 36.3798C41.392 36.6656 41.4149 36.9545 41.4145 37.2439C41.3935 38.625 40.827 39.9417 39.8387 40.9067C38.8503 41.8716 37.5204 42.4064 36.1391 42.3942Z" fill="#333333"/>
</svg>
