<svg width="60" height="62" viewBox="0 0 60 62" fill="none" xmlns="http://www.w3.org/2000/svg">
<path d="M1.10988 13.7331C1.78829 7.24783 6.8194 2.05077 13.2861 1.2132C25.3561 -0.350123 34.9217 -0.433378 46.9857 1.14293C53.4782 1.99126 58.4638 7.28432 59.0579 13.805C60.151 25.8006 60.1248 35.3396 59.0553 47.2967C58.4599 53.9529 53.3174 59.3204 46.6823 60.1162C34.755 61.5467 25.2452 61.5989 13.2675 60.1257C6.80756 59.3312 1.77061 54.1576 1.08134 47.6856C-0.166684 35.9669 -0.210187 26.3524 1.10988 13.7331Z" fill="#417EF5"/>
<path d="M30.5829 19.1743C23.1345 19.1743 17.0977 24.0785 17.0977 30.131C17.0977 32.6384 18.146 34.9351 19.8843 36.784C19.0994 38.8595 17.4665 40.6189 17.4401 40.64C17.0925 41.0087 16.9976 41.546 17.1978 42.0095C17.398 42.4731 17.8563 42.7734 18.362 42.7734C21.6016 42.7734 24.1564 41.4196 25.6893 40.3344C27.2116 40.8138 28.8551 41.0877 30.5829 41.0877C38.0313 41.0877 44.0681 36.1835 44.0681 30.131C44.0681 24.0785 38.0313 19.1743 30.5829 19.1743ZM30.5829 38.5592C29.1764 38.5592 27.7858 38.3433 26.4531 37.9219L25.2573 37.5426L24.2301 38.2695C23.4769 38.8015 22.4444 39.3968 21.2012 39.7971C21.5858 39.1597 21.9598 38.4433 22.2495 37.6795L22.8079 36.1993L21.7227 35.051C20.7693 34.0343 19.6262 32.354 19.6262 30.131C19.6262 25.485 24.5409 21.7028 30.5829 21.7028C36.6249 21.7028 41.5396 25.485 41.5396 30.131C41.5396 34.7771 36.6249 38.5592 30.5829 38.5592Z" fill="white"/>
</svg>
