<svg width="60" height="62" viewBox="0 0 60 62" fill="none" xmlns="http://www.w3.org/2000/svg">
<path d="M21.1793 29.7667C22.6814 29.7667 23.9027 28.5454 23.9027 27.0433C23.9027 25.5412 22.6814 24.3199 21.1793 24.3199C19.6772 24.3199 18.4559 25.5412 18.4559 27.0433C18.4559 28.5454 19.6772 29.7667 21.1793 29.7667ZM40.2429 29.7667C41.745 29.7667 42.9663 28.5454 42.9663 27.0433C42.9663 25.5412 41.745 24.3199 40.2429 24.3199C38.7408 24.3199 37.5195 25.5412 37.5195 27.0433C37.5195 28.5454 38.7408 29.7667 40.2429 29.7667ZM41.6046 31.1284H38.8812C38.1323 31.1284 37.4557 31.4305 36.9621 31.9198C38.677 32.8603 39.894 34.5581 40.1578 36.5751H42.9663C43.7194 36.5751 44.3279 35.9666 44.3279 35.2134V33.8517C44.3279 32.3496 43.1067 31.1284 41.6046 31.1284ZM30.7111 31.1284C33.3451 31.1284 35.477 28.9965 35.477 26.3625C35.477 23.7284 33.3451 21.5966 30.7111 21.5966C28.0771 21.5966 25.9452 23.7284 25.9452 26.3625C25.9452 28.9965 28.0771 31.1284 30.7111 31.1284ZM33.9791 32.49H33.626C32.7409 32.9156 31.7579 33.1709 30.7111 33.1709C29.6643 33.1709 28.6856 32.9156 27.7962 32.49H27.443C24.7367 32.49 22.541 34.6858 22.541 37.3921V38.6176C22.541 39.7453 23.4559 40.6602 24.5835 40.6602H36.8387C37.9663 40.6602 38.8812 39.7453 38.8812 38.6176V37.3921C38.8812 34.6858 36.6855 32.49 33.9791 32.49ZM24.4601 31.9198C23.9665 31.4305 23.2899 31.1284 22.541 31.1284H19.8176C18.3155 31.1284 17.0942 32.3496 17.0942 33.8517V35.2134C17.0942 35.9666 17.7027 36.5751 18.4559 36.5751H21.2601C21.5282 34.5581 22.7452 32.8603 24.4601 31.9198Z" fill="#333333"/>
</svg>
