<svg width="20" height="20" viewBox="0 0 20 20" fill="none" xmlns="http://www.w3.org/2000/svg">
<path d="M19.0037 14.5064V17.2222C19.0047 17.4743 18.9531 17.7238 18.8521 17.9548C18.7511 18.1858 18.6029 18.3932 18.4172 18.5636C18.2314 18.734 18.0121 18.8638 17.7732 18.9446C17.5344 19.0253 17.2814 19.0553 17.0303 19.0327C14.2447 18.73 11.5689 17.7781 9.21796 16.2535C7.03072 14.8637 5.17633 13.0093 3.78646 10.822C2.25657 8.46043 1.30449 5.77165 1.00735 2.97353C0.984726 2.7232 1.01448 2.4709 1.0947 2.2327C1.17493 1.99449 1.30388 1.77561 1.47334 1.58997C1.6428 1.40433 1.84905 1.25601 2.07897 1.15445C2.30889 1.0529 2.55744 1.00032 2.80879 1.00009H5.52454C5.96387 0.995764 6.38977 1.15134 6.72288 1.43781C7.05598 1.72428 7.27355 2.1221 7.33504 2.55712C7.44967 3.42622 7.66224 4.27956 7.96872 5.10087C8.09051 5.42488 8.11687 5.77701 8.04467 6.11554C7.97247 6.45407 7.80474 6.76482 7.56135 7.01094L6.41169 8.16061C7.70036 10.4269 9.57685 12.3034 11.8432 13.5921L12.9928 12.4424C13.239 12.1991 13.5497 12.0313 13.8882 11.9591C14.2268 11.8869 14.5789 11.9133 14.9029 12.0351C15.7242 12.3415 16.5776 12.5541 17.4467 12.6688C17.8864 12.7308 18.288 12.9523 18.5751 13.2911C18.8622 13.6299 19.0147 14.0625 19.0037 14.5064Z" stroke="#333333" stroke-width="1.6" stroke-linecap="round" stroke-linejoin="round"/>
</svg>
