<svg width="60" height="62" viewBox="0 0 60 62" fill="none" xmlns="http://www.w3.org/2000/svg">
<path d="M41.2912 34.7149L39.2262 33.5224C39.4346 32.3978 39.4346 31.2441 39.2262 30.1196L41.2912 28.9271C41.5287 28.7914 41.6353 28.5102 41.5578 28.2485C41.0197 26.5228 40.1036 24.962 38.9063 23.6629C38.7221 23.4641 38.4215 23.4157 38.1888 23.5514L36.1239 24.7438C35.2562 23.9973 34.2576 23.4205 33.1767 23.0424V20.6623C33.1767 20.3909 32.9876 20.1534 32.721 20.0952C30.942 19.6977 29.1194 19.7171 27.4277 20.0952C27.1611 20.1534 26.972 20.3909 26.972 20.6623V23.0473C25.8959 23.4302 24.8974 24.007 24.0249 24.7487L21.9647 23.5562C21.7272 23.4205 21.4315 23.4641 21.2473 23.6677C20.05 24.962 19.1339 26.5228 18.5958 28.2533C18.5134 28.5151 18.6249 28.7962 18.8624 28.932L20.9274 30.1244C20.7189 31.249 20.7189 32.4027 20.9274 33.5273L18.8624 34.7197C18.6249 34.8554 18.5182 35.1366 18.5958 35.3983C19.1339 37.124 20.05 38.6848 21.2473 39.9839C21.4315 40.1827 21.732 40.2312 21.9647 40.0954L24.0297 38.903C24.8974 39.6495 25.8959 40.2263 26.9769 40.6044V42.9893C26.9769 43.2608 27.1659 43.4983 27.4325 43.5564C29.2115 43.9539 31.0341 43.9345 32.7259 43.5564C32.9925 43.4983 33.1815 43.2608 33.1815 42.9893V40.6044C34.2576 40.2215 35.2562 39.6446 36.1287 38.903L38.1937 40.0954C38.4312 40.2312 38.7269 40.1875 38.9111 39.9839C40.1084 38.6897 41.0246 37.1288 41.5626 35.3983C41.6353 35.1317 41.5287 34.8506 41.2912 34.7149ZM30.0744 35.6989C27.9367 35.6989 26.1965 33.9587 26.1965 31.821C26.1965 29.6833 27.9367 27.9431 30.0744 27.9431C32.212 27.9431 33.9522 29.6833 33.9522 31.821C33.9522 33.9587 32.212 35.6989 30.0744 35.6989Z" fill="#333333"/>
</svg>
